<svg id="Capa_1" enable-background="new 0 0 512 512" height="512" viewBox="0 0 512 512" width="512" xmlns="http://www.w3.org/2000/svg"><path d="m127.998 31.76v-24.76c0-3.866 3.134-7 7-7h306.005c3.866 0 7 3.134 7 7v433.995c0 3.866-3.134 7-7 7h-25.008l-3.995-412.068z" fill="#eaf6ff"/><g><path d="m96 64.005v-25.245c0-3.866 3.134-7 7-7h312.995v441.005c0 3.866-3.134 7-7 7h-24.997l-4.151-411.279z" fill="#ffe177"/><path d="m376.999 511.998h-305.997c-3.866 0-7-3.134-7-7v-433.996c0-3.866 3.134-7 7-7h312.997v440.996c0 3.866-3.134 7-7 7z" fill="#eaf6ff"/><path d="m84.601 64.005v447.995h-13.604c-3.866 0-7-3.134-7-7v-433.995c0-3.866 3.134-7 7-7z" fill="#d8ecfe"/><circle cx="143.765" cy="367.732" fill="#aee69c" r="15.764"/><circle cx="143.765" cy="431.825" fill="#aee69c" r="15.764"/><path d="m311.06 280.48v38.92h-176.1v-38.92c0-9.65 6.13-18.24 15.27-21.37l32.4-11.08 16.36-5.6h48.03l16.36 5.6 32.4 11.08c9.14 3.13 15.28 11.72 15.28 21.37z" fill="#8ac9fe"/><path d="m229.897 242.432-48.758 16.679c-9.138 3.132-15.278 11.713-15.278 21.376v38.91h-30.905v-38.91c0-9.663 6.14-18.244 15.278-21.376l48.758-16.679z" fill="#60b7ff"/><path d="m263.38 248.03c-8.82 10.8-22.23 17.71-37.23 17.71h-6.29c-15 0-28.41-6.91-37.23-17.71l16.36-5.6h48.03z" fill="#60b7ff"/><path d="m181.8 167.68v50.003c0 21.02 17.04 38.061 38.061 38.061h6.291c21.02 0 38.061-17.04 38.061-38.061v-50.003c0-6.437-5.218-11.656-11.656-11.656h-59.101c-6.437.001-11.656 5.219-11.656 11.656z" fill="#ffcebf"/><path d="m233.307 255.063c-2.318.453-4.718.68-7.16.68h-6.284c-21.026 0-38.065-17.039-38.065-38.055v-50.005c0-6.439 5.223-11.662 11.662-11.662h20.604c-6.439 0-11.662 5.223-11.662 11.662v50.005c0 18.574 13.3 34.037 30.905 37.375z" fill="#ffb09e"/><path d="m181.8 180.706h16.521c6.297 0 12.316-2.593 16.641-7.17l11.304-11.962 7.342 12.805c2.244 3.914 6.41 6.327 10.922 6.327h19.682v-25.716c0-15.605-12.65-28.256-28.256-28.256h-25.901c-15.605 0-28.256 12.65-28.256 28.256v25.716z" fill="#68748f"/><path d="m210.056 126.733h20.604c-15.607 0-28.258 12.651-28.258 28.258v25.342c-1.339.247-2.699.371-4.079.371h-16.524v-25.713c-.001-15.608 12.65-28.258 28.257-28.258z" fill="#5d6980"/><g><g><path d="m256 359.694h-63.999c-4.267 0-7.726-3.459-7.726-7.726s3.459-7.726 7.726-7.726h63.999c4.268 0 7.726 3.459 7.726 7.726.001 4.266-3.458 7.726-7.726 7.726z" fill="#68748f"/></g></g><g><g><path d="m319.999 391.694h-127.998c-4.267 0-7.726-3.459-7.726-7.726s3.459-7.726 7.726-7.726h127.998c4.268 0 7.726 3.459 7.726 7.726.001 4.266-3.458 7.726-7.726 7.726z" fill="#68748f"/></g></g><g><g><path d="m256 423.787h-63.999c-4.267 0-7.726-3.459-7.726-7.726s3.459-7.726 7.726-7.726h63.999c4.268 0 7.726 3.459 7.726 7.726.001 4.267-3.458 7.726-7.726 7.726z" fill="#68748f"/></g></g><g><g><path d="m319.999 455.787h-127.998c-4.267 0-7.726-3.459-7.726-7.726s3.459-7.726 7.726-7.726h127.998c4.268 0 7.726 3.459 7.726 7.726.001 4.267-3.458 7.726-7.726 7.726z" fill="#68748f"/></g></g></g></svg>