<svg id="Layer_1" fill="#e82525" enable-background="new 0 0 512.114 512.114" height="512" viewBox="0 0 512.114 512.114" width="512" xmlns="http://www.w3.org/2000/svg"><g><path d="m366.287 238.017-163.25-106.46c-4.628-3.028-8.608-3.5-13.44-3.5-11.88 0-21.54 9.66-21.54 21.54v212.92c0 11.88 9.66 21.54 21.54 21.54 4.836 0 8.814-.473 13.44-3.5l163.25-106.46c13.004-8.479 13.043-27.576 0-36.08z"/><path d="m437.077 75.037c-100.045-100.045-261.986-100.054-362.04 0-100.046 100.046-100.054 261.986 0 362.04 100.045 100.045 261.986 100.054 362.04 0 100.046-100.046 100.054-261.986 0-362.04zm-62.05 212.46-163.25 106.46c-23.83 15.562-59.72.265-59.72-31.44v-212.92c0-20.7 16.84-37.54 37.54-37.54 7.654 0 14.66 1.191 22.19 6.1l163.24 106.46c22.721 14.813 22.674 48.098 0 62.88z"/></g></svg>