<svg id="Layer_3" height="512" viewBox="0 0 64 64" width="512" xmlns="http://www.w3.org/2000/svg" data-name="Layer 3"><path d="m6 2h46v60h-46z" fill="#d6d6d6"/><path d="m6 58h37a4 4 0 0 0 4-4v-52h-41z" fill="#f2f2f2"/><circle cx="46" cy="50" fill="#559b38" r="12"/><path d="m46 38a11.984 11.984 0 0 0 -9.594 19.186h12.7a4 4 0 0 0 4-4v-12.84a11.93 11.93 0 0 0 -7.106-2.346z" fill="#6bc148"/><path d="m44.707 55.293 9.293-9.293-3-3-8 8-2-2-3 3 3.292 3.293a2.414 2.414 0 0 0 1.708.707 2.414 2.414 0 0 0 1.707-.707z" fill="#fff"/><path d="m14 10h30v20h-30z" fill="#594139"/><path d="m20 20-6-6v-4h30v4l-6 6z" fill="#74574a"/><g fill="#f3a845"><path d="m27 18h4v4h-4z"/><path d="m18 30a4 4 0 0 0 -4-4v4z"/><path d="m40 30a4 4 0 0 1 4-4v4z"/></g><path d="m27 21h1a2 2 0 0 0 2-2v-1h-3z" fill="#eecc61"/><path d="m7 3h44v34h2v-35a1 1 0 0 0 -1-1h-46a1 1 0 0 0 -1 1v60a1 1 0 0 0 1 1h31v-2h-30z"/><path d="m34 5h-10a1 1 0 0 0 -1 1v3h-9a1 1 0 0 0 -1 1v20a1 1 0 0 0 1 1h30a1 1 0 0 0 1-1v-20a1 1 0 0 0 -1-1h-9v-3a1 1 0 0 0 -1-1zm-9 2h8v2h-8zm2 16h4a1 1 0 0 0 1-1v-1h6a1 1 0 0 0 .707-.293l4.293-4.293v8.686a5.016 5.016 0 0 0 -3.9 3.9h-20.2a5.016 5.016 0 0 0 -3.9-3.9v-8.686l4.293 4.293a1 1 0 0 0 .707.293h6v1a1 1 0 0 0 1 1zm1-2v-2h2v2zm-13 6.184a3 3 0 0 1 1.816 1.816h-1.816zm26.184 1.816a3 3 0 0 1 1.816-1.816v1.816zm1.816-15.414-5.414 5.414h-5.586v-1a1 1 0 0 0 -1-1h-4a1 1 0 0 0 -1 1v1h-5.586l-5.414-5.414v-2.586h28z"/><path d="m11 33h36v2h-36z"/><path d="m46 37h-35v2h28.1a13.076 13.076 0 0 0 -2.463 2h-25.637v2h24.063a12.959 12.959 0 0 0 -1.063 2.008v-.008h-23v2h22.363a12.92 12.92 0 0 0 -.312 2h-22.051v2h22.051a12.994 12.994 0 1 0 12.949-14zm0 24a11 11 0 1 1 11-11 11.013 11.013 0 0 1 -11 11z"/><path d="m11 53h17v2h-17z"/><path d="m30 53h2v2h-2z"/><path d="m54.707 45.293-3-3a1 1 0 0 0 -1.414 0l-7.293 7.293-1.293-1.293a1 1 0 0 0 -1.414 0l-3 3a1 1 0 0 0 0 1.414l3.292 3.293a3.415 3.415 0 0 0 4.829 0l9.293-9.293a1 1 0 0 0 0-1.414zm-10.707 9.293a1.452 1.452 0 0 1 -2 0l-2.586-2.586 1.586-1.586 1.293 1.293a1 1 0 0 0 1.414 0l7.293-7.293 1.586 1.586z"/></svg>