<?xml version="1.0"?>
<svg xmlns="http://www.w3.org/2000/svg" xmlns:xlink="http://www.w3.org/1999/xlink" xmlns:svgjs="http://svgjs.com/svgjs" version="1.1" width="512" height="512" x="0" y="0" viewBox="0 0 512 512" style="enable-background:new 0 0 512 512" xml:space="preserve"><g><g xmlns="http://www.w3.org/2000/svg"><g><path d="m425.832 0h-237.594c-4.133 0-7.483 3.35-7.483 7.483s3.35 7.483 7.483 7.483h237.594c1.042 0 1.89.848 1.89 1.89v395.612h-64.429c-9.295 0-16.857 7.562-16.857 16.857v67.707h-260.267c-1.042 0-1.89-.848-1.89-1.89v-478.285c0-1.042.848-1.89 1.89-1.89h67.219c4.133 0 7.483-3.35 7.483-7.483 0-4.134-3.35-7.483-7.483-7.483h-67.219c-9.295 0-16.857 7.562-16.857 16.857v478.286c0 9.295 7.562 16.857 16.857 16.857h267.751c2.036 0 3.984-.829 5.395-2.298l81.285-84.564c1.34-1.393 2.088-3.252 2.088-5.186v-403.096c0-9.295-7.561-16.857-16.856-16.857zm-64.429 485.933v-56.607c0-1.043.848-1.89 1.89-1.89h54.338z" fill="#266089" data-original="#000000" style=""/><path d="m376.028 179.62c-.472-7.373-3.787-14.121-9.334-19s-12.667-7.308-20.034-6.834c-7.373.473-14.121 3.788-19 9.335l-7.999 9.094c-19.495-16.948-44.937-27.223-72.736-27.223-61.211 0-111.009 49.798-111.009 111.009s49.798 111.009 111.009 111.009 111.008-49.799 111.008-111.01c0-12.789-2.182-25.076-6.18-36.519l17.441-19.827c4.879-5.547 7.306-12.662 6.834-20.034zm-18.072 10.15-50.645 57.575c-2.73 3.103-2.427 7.831.676 10.561 3.102 2.728 7.831 2.426 10.561-.677l21.544-24.492c1.863 7.454 2.873 15.241 2.873 23.263 0 52.958-43.084 96.042-96.042 96.042s-96.041-43.084-96.041-96.042 43.084-96.042 96.042-96.042c24.016 0 45.999 8.864 62.856 23.489l-52.484 59.667-19.68-22.96c-9.926-11.58-27.421-12.924-38.998-3-11.579 9.925-12.925 27.419-3 38.999l40.409 47.144c5.217 6.087 12.807 9.607 20.87 9.658h.13c7.949 0 15.518-3.423 20.767-9.391.024-.027.047-.054.071-.082l17.598-20.604c2.684-3.142 2.312-7.866-.83-10.551-3.142-2.684-7.866-2.311-10.551.83l-17.558 20.558c-2.407 2.716-5.866 4.273-9.497 4.273h-.083c-3.677-.023-7.16-1.639-9.554-4.431l-40.408-47.144c-4.554-5.313-3.937-13.341 1.376-17.896 5.312-4.554 13.34-3.937 17.895 1.377l25.288 29.504c1.41 1.646 3.466 2.6 5.634 2.613h.048c2.15 0 4.198-.926 5.619-2.541l76.055-86.463c2.239-2.545 5.335-4.066 8.718-4.282s6.648.896 9.194 3.136c2.545 2.238 4.067 5.335 4.283 8.718.216 3.38-.897 6.645-3.136 9.191z" fill="#266089" data-original="#000000" style=""/></g></g></g></svg>
