<?xml version="1.0"?>
<svg xmlns="http://www.w3.org/2000/svg" xmlns:xlink="http://www.w3.org/1999/xlink" xmlns:svgjs="http://svgjs.com/svgjs" version="1.1" width="512" height="512" x="0" y="0" viewBox="0 0 512.2 512.2" style="enable-background:new 0 0 512 512" xml:space="preserve" class=""><g><g xmlns="http://www.w3.org/2000/svg"><path d="m463.762 512.103h12.885c19.604 0 35.554-15.949 35.554-35.554v-210.627c0-19.605-15.949-35.554-35.554-35.554h-50.281c5.12-62.525-17.143-123.308-61.811-167.874-40.268-40.18-94.4-60.493-150.668-62.369-2.805-.096-69.404-1.777-129.917 43.897-3.306 2.496-3.963 7.198-1.468 10.504 3.3 3.405 6.801 3.894 10.504 1.468 44.95-33.927 94.693-39.743 113.058-40.704l.004 198.099c0 6.459 8.037 10.057 12.797 5.31l140.394-140.071c38.241 41.148 56.987 95.73 52.063 151.74h-60.941l-43.484-43.485c-4.633-4.631-12.804-1.249-12.804 5.303v38.182h-17.67c-19.604 0-35.553 15.949-35.553 35.554v143.262c-9.01 1.236-18.036 1.856-27.022 1.856-168.19.105-260.748-197.718-151.437-326.153 2.689-3.15 2.316-7.884-.834-10.574-3.15-2.689-7.884-2.316-10.574.834-125.542 149.26-2.963 372.713 189.867 349.176v52.226c0 19.604 15.949 35.554 35.553 35.554h147.437c4.143 0 7.5-3.358 7.5-7.5s-3.357-7.5-7.5-7.5h-147.437c-11.333 0-20.553-9.22-20.553-20.554v-210.627c0-11.334 9.22-20.554 20.553-20.554h25.17c4.143 0 7.5-3.358 7.5-7.5v-27.575l32.878 32.878c1.407 1.407 3.314 2.197 5.304 2.197h129.372c11.333 0 20.554 9.22 20.554 20.554v210.628c0 11.333-9.221 20.554-20.554 20.554h-12.885c-9.918.339-9.946 14.642 0 14.999zm-124.794-434.42h-117.904v-23.95h110.053c6.083 4.437 11.924 9.222 17.476 14.348zm-39.04 38.951h-78.863l-.001-23.951h102.869zm-39.04 38.95h-39.822l-.001-23.951h63.828zm-39.825-140.198c30.109 1.163 59.637 9.3 86.071 23.347h-86.07zm.003 155.198h24.787l-24.787 24.73z" fill="#266089" data-original="#000000" style=""/><path d="m340.355 466.721c3.871 1.475 8.204-.468 9.679-4.339l3.96-10.397h27.064l3.916 10.376c3.355 8.895 17.456 3.77 14.033-5.296l-23.076-61.147c-2.798-7.64-13.778-7.465-16.627-.019l-23.288 61.145c-1.475 3.869.468 8.202 4.339 9.677zm27.233-50.43 7.809 20.693h-15.691z" fill="#266089" data-original="#000000" style=""/><path d="m412.855 465.843c3.732 2.304 7.216 1.7 10.45-1.812l17.261-24.502 17.234 24.498c5.807 8.256 17.697-.914 12.268-8.631l-20.325-28.893 17.253-24.491c5.585-7.928-6.679-16.567-12.262-8.639l-14.158 20.098-14.135-20.094c-5.577-7.932-17.848.699-12.268 8.631l17.227 24.489-20.356 28.895c-2.387 3.387-1.576 8.065 1.811 10.451z" fill="#266089" data-original="#000000" style=""/><path d="m306.191 467.212c4.143 0 7.5-3.358 7.5-7.5v-54.519h9.694c9.931-.344 9.923-14.66 0-15h-34.25c-9.931.344-9.923 14.66 0 15h9.556v54.519c0 4.142 3.358 7.5 7.5 7.5z" fill="#266089" data-original="#000000" style=""/><path d="m344.273 374.142c3.303 2.248 8.194 1.29 10.42-1.98l56.804-83.47c2.331-3.425 1.443-8.09-1.98-10.42-3.424-2.33-8.089-1.442-10.42 1.981l-56.804 83.47c-2.331 3.424-1.443 8.089 1.98 10.419z" fill="#266089" data-original="#000000" style=""/><path d="m428.275 350.783c0-13.597-9.248-24.659-20.615-24.659-27.341 1.324-27.331 48 0 49.318 11.367 0 20.615-11.062 20.615-24.659zm-26.23 0c0-5.528 2.965-9.659 5.615-9.659s5.615 4.131 5.615 9.659-2.965 9.659-5.615 9.659-5.615-4.131-5.615-9.659z" fill="#266089" data-original="#000000" style=""/><path d="m345.41 326.29c11.367 0 20.614-11.062 20.614-24.659-.872-32.827-40.218-32.604-41.23 0 .001 13.597 9.249 24.659 20.616 24.659zm0-34.319c2.65 0 5.614 4.131 5.614 9.659s-2.964 9.659-5.614 9.659-5.615-4.131-5.615-9.659 2.965-9.659 5.615-9.659z" fill="#266089" data-original="#000000" style=""/></g></g></svg>
