<?xml version="1.0"?>
<svg xmlns="http://www.w3.org/2000/svg" xmlns:xlink="http://www.w3.org/1999/xlink" xmlns:svgjs="http://svgjs.com/svgjs" version="1.1" width="512" height="512" x="0" y="0" viewBox="0 0 24 24" style="enable-background:new 0 0 512 512" xml:space="preserve" class=""><g><g xmlns="http://www.w3.org/2000/svg"><path d="m13.006 6c-1.654 0-3-1.346-3-3s1.346-3 3-3 3 1.346 3 3-1.346 3-3 3zm0-5c-1.103 0-2 .897-2 2s.897 2 2 2 2-.897 2-2-.897-2-2-2z" fill="#266089" data-original="#000000" style=""/></g><g xmlns="http://www.w3.org/2000/svg"><path d="m6.506 24c-.276 0-.5-.224-.5-.5v-9c0-.276.224-.5.5-.5s.5.224.5.5v9c0 .276-.224.5-.5.5z" fill="#266089" data-original="#000000" style=""/></g><g xmlns="http://www.w3.org/2000/svg"><path d="m16.497 24c-.276 0-.5-.224-.5-.5v-1.486c0-1.089.319-2.144.924-3.051l.32-.48c.513-.77.775-1.655.758-2.561-.071-3.8-.759-6.19-2.166-7.521-.272-.259-.639-.401-1.032-.401h-1.164c-1.172 0-2.261.583-2.912 1.559l-.518.777c-.241.361-.573.655-.961.849l-2.893 1.45c-.214.107-.348.323-.348.563 0 .186.077.354.217.476s.318.175.501.147l1.607-.23c.292-.042.563-.167.783-.362l2.228-1.976c.183-.163.419-.253.665-.253.551 0 1 .449 1 1v11.5c0 .276-.224.5-.5.5s-.5-.224-.5-.5v-11.5l-2.228 1.976c-.367.325-.818.534-1.304.604l-1.608.23c-.466.063-.941-.071-1.298-.382-.357-.31-.563-.759-.563-1.231 0-.621.345-1.179.9-1.457l2.893-1.45c.233-.117.432-.292.577-.509l.518-.777c.837-1.255 2.237-2.004 3.745-2.004h1.164c.65 0 1.26.239 1.719.674 1.614 1.528 2.402 4.143 2.479 8.228.021 1.111-.299 2.194-.926 3.135l-.32.48c-.495.742-.756 1.605-.756 2.496v1.487c-.001.276-.225.5-.501.5z" fill="#266089" data-original="#000000" style=""/></g></g></svg>
